<?xml version="1.0" ?><!-- Uploaded to: SVG Repo, www.svgrepo.com, Generator: SVG Repo Mixer Tools -->
<svg fill="#000000" width="800px" height="800px" viewBox="0 0 512 512" data-name="Layer 1" id="Layer_1" xmlns="http://www.w3.org/2000/svg"><path d="M433.63,187.26c-8.72-7.28-19.3-9.62-31.47-7a44.47,44.47,0,0,0-23-23.56,48.21,48.21,0,1,0-40.26,1.48,44.68,44.68,0,0,0-16.56,15.44L289.75,224.9H218.64A22.84,22.84,0,0,0,195.91,248a22.58,22.58,0,0,0,4.58,13.67H179.63l-34-75.4a4.53,4.53,0,0,0-8.26,3.73l35.24,78.06a4.51,4.51,0,0,0,4.13,2.67h35.82a66,66,0,0,0-27.45,31.34L138.92,411.56a25.38,25.38,0,0,0,46.32,20.69l4.46-9.37a59.64,59.64,0,0,0,47.74,23.73H403.38a52.68,52.68,0,0,0,52.41-46.71C465,319,468.62,216.42,433.63,187.26ZM318.27,113.62a39.17,39.17,0,1,1,39.17,39.16A39.21,39.21,0,0,1,318.27,113.62ZM205,247.63A13.68,13.68,0,0,1,218.64,234h73.6a4.54,4.54,0,0,0,3.83-2.11L330,178.44a35.57,35.57,0,0,1,30.19-16.59h.63a35.59,35.59,0,0,1,33.06,22.06l-99.35,77.76H218.64A13.77,13.77,0,0,1,205,247.63ZM177.05,428.36a16.42,16.42,0,0,1-29.36.13,16.09,16.09,0,0,1-.41-13.4L193.44,305.6A56.9,56.9,0,0,1,246,270.73h37L197.8,337.38A58.1,58.1,0,0,0,179,400.57l1.43,4.45a59.54,59.54,0,0,0,3.56,8.71Zm269.73-29.49a43.62,43.62,0,0,1-43.4,38.68H237.44a50.6,50.6,0,0,1-44.14-25.67,4.76,4.76,0,0,0-.53-1,50.9,50.9,0,0,1-3.69-8.66l-1.43-4.46a49.09,49.09,0,0,1,15.8-53.34L400.78,190a4.46,4.46,0,0,0,.74-.32c10.58-2.89,19.19-1.41,26.31,4.53C452.35,214.66,459.25,289.25,446.78,398.87Z"/><path d="M156.73,146.34a4.53,4.53,0,0,0-4.53-4.54,53.45,53.45,0,0,0-53.39,53.4,4.53,4.53,0,0,0,9.06,0,44.38,44.38,0,0,1,44.33-44.33A4.53,4.53,0,0,0,156.73,146.34Z"/><path d="M156.73,97.48a4.53,4.53,0,0,0-4.53-4.54A102.38,102.38,0,0,0,50,195.2a4.53,4.53,0,0,0,9.06,0A93.3,93.3,0,0,1,152.2,102,4.53,4.53,0,0,0,156.73,97.48Z"/></svg>